<svg xmlns="http://www.w3.org/2000/svg" viewBox="0 0 1200 600" width="1200" height="600">
  <path fill="none" stroke="#e5e5e5" stroke-width="1" d="M156,300.9c-0.5-2.4-0.3-5.1-0.3-7.6c0-2.5-0.1-5.1,0.3-7.6c0.4-2.5,1.3-4.9,2.5-7.1c1.2-2.2,2.7-4.2,4.5-5.9c1.8-1.7,3.8-3.1,6-4.1c2.2-1,4.5-1.6,6.9-1.8c2.4-0.2,4.8,0,7.1,0.6c2.3,0.6,4.5,1.6,6.5,2.9c2,1.3,3.8,2.9,5.3,4.7c1.5,1.8,2.7,3.9,3.6,6.1c0.9,2.2,1.4,4.5,1.6,6.9c0.2,2.4,0,4.8-0.6,7.1c-0.6,2.3-1.6,4.5-2.9,6.5c-1.3,2-2.9,3.8-4.7,5.3c-1.8,1.5-3.9,2.7-6.1,3.6c-2.2,0.9-4.5,1.4-6.9,1.6c-2.4,0.2-4.8,0-7.1-0.6c-2.3-0.6-4.5-1.6-6.5-2.9c-2-1.3-3.8-2.9-5.3-4.7c-1.5-1.8-2.7-3.9-3.6-6.1C156.7,304.8,156.2,302.8,156,300.9z"/>
  <path fill="none" stroke="#e5e5e5" stroke-width="1" d="M340.9,199.6c-1.8-1.7-3.1-3.8-4.1-6c-1-2.2-1.6-4.5-1.8-6.9c-0.2-2.4,0-4.8,0.6-7.1c0.6-2.3,1.6-4.5,2.9-6.5c1.3-2,2.9-3.8,4.7-5.3c1.8-1.5,3.9-2.7,6.1-3.6c2.2-0.9,4.5-1.4,6.9-1.6c2.4-0.2,4.8,0,7.1,0.6c2.3,0.6,4.5,1.6,6.5,2.9c2,1.3,3.8,2.9,5.3,4.7c1.5,1.8,2.7,3.9,3.6,6.1c0.9,2.2,1.4,4.5,1.6,6.9c0.2,2.4,0,4.8-0.6,7.1c-0.6,2.3-1.6,4.5-2.9,6.5c-1.3,2-2.9,3.8-4.7,5.3c-1.8,1.5-3.9,2.7-6.1,3.6c-2.2,0.9-4.5,1.4-6.9,1.6c-2.4,0.2-4.8,0-7.1-0.6c-2.3-0.6-4.5-1.6-6.5-2.9c-2-1.3-3.8-2.9-5.3-4.7C342.4,203.9,341.6,201.8,340.9,199.6z"/>
  <path fill="none" stroke="#e5e5e5" stroke-width="1" d="M520.9,199.6c-1.8-1.7-3.1-3.8-4.1-6c-1-2.2-1.6-4.5-1.8-6.9c-0.2-2.4,0-4.8,0.6-7.1c0.6-2.3,1.6-4.5,2.9-6.5c1.3-2,2.9-3.8,4.7-5.3c1.8-1.5,3.9-2.7,6.1-3.6c2.2-0.9,4.5-1.4,6.9-1.6c2.4-0.2,4.8,0,7.1,0.6c2.3,0.6,4.5,1.6,6.5,2.9c2,1.3,3.8,2.9,5.3,4.7c1.5,1.8,2.7,3.9,3.6,6.1c0.9,2.2,1.4,4.5,1.6,6.9c0.2,2.4,0,4.8-0.6,7.1c-0.6,2.3-1.6,4.5-2.9,6.5c-1.3,2-2.9,3.8-4.7,5.3c-1.8,1.5-3.9,2.7-6.1,3.6c-2.2,0.9-4.5,1.4-6.9,1.6c-2.4,0.2-4.8,0-7.1-0.6c-2.3-0.6-4.5-1.6-6.5-2.9c-2-1.3-3.8-2.9-5.3-4.7C522.4,203.9,521.6,201.8,520.9,199.6z"/>
  <path fill="none" stroke="#e5e5e5" stroke-width="1" d="M700.9,199.6c-1.8-1.7-3.1-3.8-4.1-6c-1-2.2-1.6-4.5-1.8-6.9c-0.2-2.4,0-4.8,0.6-7.1c0.6-2.3,1.6-4.5,2.9-6.5c1.3-2,2.9-3.8,4.7-5.3c1.8-1.5,3.9-2.7,6.1-3.6c2.2-0.9,4.5-1.4,6.9-1.6c2.4-0.2,4.8,0,7.1,0.6c2.3,0.6,4.5,1.6,6.5,2.9c2,1.3,3.8,2.9,5.3,4.7c1.5,1.8,2.7,3.9,3.6,6.1c0.9,2.2,1.4,4.5,1.6,6.9c0.2,2.4,0,4.8-0.6,7.1c-0.6,2.3-1.6,4.5-2.9,6.5c-1.3,2-2.9,3.8-4.7,5.3c-1.8,1.5-3.9,2.7-6.1,3.6c-2.2,0.9-4.5,1.4-6.9,1.6c-2.4,0.2-4.8,0-7.1-0.6c-2.3-0.6-4.5-1.6-6.5-2.9c-2-1.3-3.8-2.9-5.3-4.7C702.4,203.9,701.6,201.8,700.9,199.6z"/>
  <path fill="none" stroke="#e5e5e5" stroke-width="1" d="M880.9,199.6c-1.8-1.7-3.1-3.8-4.1-6c-1-2.2-1.6-4.5-1.8-6.9c-0.2-2.4,0-4.8,0.6-7.1c0.6-2.3,1.6-4.5,2.9-6.5c1.3-2,2.9-3.8,4.7-5.3c1.8-1.5,3.9-2.7,6.1-3.6c2.2-0.9,4.5-1.4,6.9-1.6c2.4-0.2,4.8,0,7.1,0.6c2.3,0.6,4.5,1.6,6.5,2.9c2,1.3,3.8,2.9,5.3,4.7c1.5,1.8,2.7,3.9,3.6,6.1c0.9,2.2,1.4,4.5,1.6,6.9c0.2,2.4,0,4.8-0.6,7.1c-0.6,2.3-1.6,4.5-2.9,6.5c-1.3,2-2.9,3.8-4.7,5.3c-1.8,1.5-3.9,2.7-6.1,3.6c-2.2,0.9-4.5,1.4-6.9,1.6c-2.4,0.2-4.8,0-7.1-0.6c-2.3-0.6-4.5-1.6-6.5-2.9c-2-1.3-3.8-2.9-5.3-4.7C882.4,203.9,881.6,201.8,880.9,199.6z"/>
  <path fill="none" stroke="#e5e5e5" stroke-width="1" d="M1060.9,199.6c-1.8-1.7-3.1-3.8-4.1-6c-1-2.2-1.6-4.5-1.8-6.9c-0.2-2.4,0-4.8,0.6-7.1c0.6-2.3,1.6-4.5,2.9-6.5c1.3-2,2.9-3.8,4.7-5.3c1.8-1.5,3.9-2.7,6.1-3.6c2.2-0.9,4.5-1.4,6.9-1.6c2.4-0.2,4.8,0,7.1,0.6c2.3,0.6,4.5,1.6,6.5,2.9c2,1.3,3.8,2.9,5.3,4.7c1.5,1.8,2.7,3.9,3.6,6.1c0.9,2.2,1.4,4.5,1.6,6.9c0.2,2.4,0,4.8-0.6,7.1c-0.6,2.3-1.6,4.5-2.9,6.5c-1.3,2-2.9,3.8-4.7,5.3c-1.8,1.5-3.9,2.7-6.1,3.6c-2.2,0.9-4.5,1.4-6.9,1.6c-2.4,0.2-4.8,0-7.1-0.6c-2.3-0.6-4.5-1.6-6.5-2.9c-2-1.3-3.8-2.9-5.3-4.7C1062.4,203.9,1061.6,201.8,1060.9,199.6z"/>
  <path fill="none" stroke="#e5e5e5" stroke-width="1" d="M156,400.9c-0.5-2.4-0.3-5.1-0.3-7.6c0-2.5-0.1-5.1,0.3-7.6c0.4-2.5,1.3-4.9,2.5-7.1c1.2-2.2,2.7-4.2,4.5-5.9c1.8-1.7,3.8-3.1,6-4.1c2.2-1,4.5-1.6,6.9-1.8c2.4-0.2,4.8,0,7.1,0.6c2.3,0.6,4.5,1.6,6.5,2.9c2,1.3,3.8,2.9,5.3,4.7c1.5,1.8,2.7,3.9,3.6,6.1c0.9,2.2,1.4,4.5,1.6,6.9c0.2,2.4,0,4.8-0.6,7.1c-0.6,2.3-1.6,4.5-2.9,6.5c-1.3,2-2.9,3.8-4.7,5.3c-1.8,1.5-3.9,2.7-6.1,3.6c-2.2,0.9-4.5,1.4-6.9,1.6c-2.4,0.2-4.8,0-7.1-0.6c-2.3-0.6-4.5-1.6-6.5-2.9c-2-1.3-3.8-2.9-5.3-4.7c-1.5-1.8-2.7-3.9-3.6-6.1C156.7,404.8,156.2,402.8,156,400.9z"/>
  <path fill="none" stroke="#e5e5e5" stroke-width="1" d="M340.9,400.9c-1.8-1.7-3.1-3.8-4.1-6c-1-2.2-1.6-4.5-1.8-6.9c-0.2-2.4,0-4.8,0.6-7.1c0.6-2.3,1.6-4.5,2.9-6.5c1.3-2,2.9-3.8,4.7-5.3c1.8-1.5,3.9-2.7,6.1-3.6c2.2-0.9,4.5-1.4,6.9-1.6c2.4-0.2,4.8,0,7.1,0.6c2.3,0.6,4.5,1.6,6.5,2.9c2,1.3,3.8,2.9,5.3,4.7c1.5,1.8,2.7,3.9,3.6,6.1c0.9,2.2,1.4,4.5,1.6,6.9c0.2,2.4,0,4.8-0.6,7.1c-0.6,2.3-1.6,4.5-2.9,6.5c-1.3,2-2.9,3.8-4.7,5.3c-1.8,1.5-3.9,2.7-6.1,3.6c-2.2,0.9-4.5,1.4-6.9,1.6c-2.4,0.2-4.8,0-7.1-0.6c-2.3-0.6-4.5-1.6-6.5-2.9c-2-1.3-3.8-2.9-5.3-4.7C342.4,404.8,341.6,402.8,340.9,400.9z"/>
  <path fill="none" stroke="#e5e5e5" stroke-width="1" d="M520.9,400.9c-1.8-1.7-3.1-3.8-4.1-6c-1-2.2-1.6-4.5-1.8-6.9c-0.2-2.4,0-4.8,0.6-7.1c0.6-2.3,1.6-4.5,2.9-6.5c1.3-2,2.9-3.8,4.7-5.3c1.8-1.5,3.9-2.7,6.1-3.6c2.2-0.9,4.5-1.4,6.9-1.6c2.4-0.2,4.8,0,7.1,0.6c2.3,0.6,4.5,1.6,6.5,2.9c2,1.3,3.8,2.9,5.3,4.7c1.5,1.8,2.7,3.9,3.6,6.1c0.9,2.2,1.4,4.5,1.6,6.9c0.2,2.4,0,4.8-0.6,7.1c-0.6,2.3-1.6,4.5-2.9,6.5c-1.3,2-2.9,3.8-4.7,5.3c-1.8,1.5-3.9,2.7-6.1,3.6c-2.2,0.9-4.5,1.4-6.9,1.6c-2.4,0.2-4.8,0-7.1-0.6c-2.3-0.6-4.5-1.6-6.5-2.9c-2-1.3-3.8-2.9-5.3-4.7C522.4,404.8,521.6,402.8,520.9,400.9z"/>
  <path fill="none" stroke="#e5e5e5" stroke-width="1" d="M700.9,400.9c-1.8-1.7-3.1-3.8-4.1-6c-1-2.2-1.6-4.5-1.8-6.9c-0.2-2.4,0-4.8,0.6-7.1c0.6-2.3,1.6-4.5,2.9-6.5c1.3-2,2.9-3.8,4.7-5.3c1.8-1.5,3.9-2.7,6.1-3.6c2.2-0.9,4.5-1.4,6.9-1.6c2.4-0.2,4.8,0,7.1,0.6c2.3,0.6,4.5,1.6,6.5,2.9c2,1.3,3.8,2.9,5.3,4.7c1.5,1.8,2.7,3.9,3.6,6.1c0.9,2.2,1.4,4.5,1.6,6.9c0.2,2.4,0,4.8-0.6,7.1c-0.6,2.3-1.6,4.5-2.9,6.5c-1.3,2-2.9,3.8-4.7,5.3c-1.8,1.5-3.9,2.7-6.1,3.6c-2.2,0.9-4.5,1.4-6.9,1.6c-2.4,0.2-4.8,0-7.1-0.6c-2.3-0.6-4.5-1.6-6.5-2.9c-2-1.3-3.8-2.9-5.3-4.7C702.4,404.8,701.6,402.8,700.9,400.9z"/>
  <path fill="none" stroke="#e5e5e5" stroke-width="1" d="M880.9,400.9c-1.8-1.7-3.1-3.8-4.1-6c-1-2.2-1.6-4.5-1.8-6.9c-0.2-2.4,0-4.8,0.6-7.1c0.6-2.3,1.6-4.5,2.9-6.5c1.3-2,2.9-3.8,4.7-5.3c1.8-1.5,3.9-2.7,6.1-3.6c2.2-0.9,4.5-1.4,6.9-1.6c2.4-0.2,4.8,0,7.1,0.6c2.3,0.6,4.5,1.6,6.5,2.9c2,1.3,3.8,2.9,5.3,4.7c1.5,1.8,2.7,3.9,3.6,6.1c0.9,2.2,1.4,4.5,1.6,6.9c0.2,2.4,0,4.8-0.6,7.1c-0.6,2.3-1.6,4.5-2.9,6.5c-1.3,2-2.9,3.8-4.7,5.3c-1.8,1.5-3.9,2.7-6.1,3.6c-2.2,0.9-4.5,1.4-6.9,1.6c-2.4,0.2-4.8,0-7.1-0.6c-2.3-0.6-4.5-1.6-6.5-2.9c-2-1.3-3.8-2.9-5.3-4.7C882.4,404.8,881.6,402.8,880.9,400.9z"/>
  <path fill="none" stroke="#e5e5e5" stroke-width="1" d="M1060.9,400.9c-1.8-1.7-3.1-3.8-4.1-6c-1-2.2-1.6-4.5-1.8-6.9c-0.2-2.4,0-4.8,0.6-7.1c0.6-2.3,1.6-4.5,2.9-6.5c1.3-2,2.9-3.8,4.7-5.3c1.8-1.5,3.9-2.7,6.1-3.6c2.2-0.9,4.5-1.4,6.9-1.6c2.4-0.2,4.8,0,7.1,0.6c2.3,0.6,4.5,1.6,6.5,2.9c2,1.3,3.8,2.9,5.3,4.7c1.5,1.8,2.7,3.9,3.6,6.1c0.9,2.2,1.4,4.5,1.6,6.9c0.2,2.4,0,4.8-0.6,7.1c-0.6,2.3-1.6,4.5-2.9,6.5c-1.3,2-2.9,3.8-4.7,5.3c-1.8,1.5-3.9,2.7-6.1,3.6c-2.2,0.9-4.5,1.4-6.9,1.6c-2.4,0.2-4.8,0-7.1-0.6c-2.3-0.6-4.5-1.6-6.5-2.9c-2-1.3-3.8-2.9-5.3-4.7C1062.4,404.8,1061.6,402.8,1060.9,400.9z"/>
  <path fill="none" stroke="#e5e5e5" stroke-width="1" d="M50,300 L1150,300" />
  <path fill="none" stroke="#e5e5e5" stroke-width="1" d="M600,100 L600,500" />
</svg>